<?xml version="1.0" encoding="UTF-8"?>
<!DOCTYPE svg PUBLIC "-//W3C//DTD SVG 1.1//EN" "http://www.w3.org/Graphics/SVG/1.1/DTD/svg11.dtd">
<svg xmlns="http://www.w3.org/2000/svg" version="1.1" width="4167px" height="4167px"  style="shape-rendering:geometricPrecision; text-rendering:geometricPrecision; image-rendering:optimizeQuality; fill-rule:evenodd; clip-rule:evenodd" xmlns:xlink="http://www.w3.org/1999/xlink">
<g><path style="opacity:0.988" fill="#fefffe" d="M 1887.5,1173.5 C 1963.12,1170.89 2020.28,1201.89 2059,1266.5C 2080.18,1307.54 2091.18,1351.21 2092,1397.5C 2094.02,1433.52 2091.36,1469.19 2084,1504.5C 2075.44,1534.08 2068.77,1564.08 2064,1594.5C 2059.32,1608.18 2049.99,1616.52 2036,1619.5C 2026.15,1618.65 2020.48,1613.31 2019,1603.5C 2017.83,1595.22 2018.83,1587.22 2022,1579.5C 2039.27,1552.6 2047.77,1523.1 2047.5,1491C 2046.1,1438.07 2029.6,1390.57 1998,1348.5C 1962.47,1308.11 1918.64,1294.94 1866.5,1309C 1829.48,1322.01 1794.48,1339.01 1761.5,1360C 1680.96,1412.16 1607.8,1473.66 1542,1544.5C 1493.52,1595.64 1446.52,1647.97 1401,1701.5C 1335.02,1782.83 1276.02,1868.83 1224,1959.5C 1367.23,1904.2 1514.4,1862.7 1665.5,1835C 1709.35,1828.22 1753.35,1826.89 1797.5,1831C 1833.45,1834.65 1867.12,1845.32 1898.5,1863C 1932.64,1886.41 1952.14,1918.91 1957,1960.5C 1961.05,2000.86 1954.72,2039.52 1938,2076.5C 1908.59,2138.58 1868.43,2192.75 1817.5,2239C 1808.01,2246.24 1798.34,2253.24 1788.5,2260C 1785,2263.5 1781.5,2267 1778,2270.5C 1767.03,2291.9 1749.53,2301.73 1725.5,2300C 1719.32,2298 1715.98,2293.67 1715.5,2287C 1717.37,2274.26 1723.37,2263.93 1733.5,2256C 1742.67,2250.95 1752,2246.28 1761.5,2242C 1815.51,2198.17 1848.01,2141.67 1859,2072.5C 1864.62,2001.11 1831.79,1961.28 1760.5,1953C 1727.61,1948.5 1694.61,1947.5 1661.5,1950C 1601.49,1951.93 1542.16,1959.26 1483.5,1972C 1400.72,1991.15 1318.72,2013.15 1237.5,2038C 1212.89,2045.81 1188.56,2054.31 1164.5,2063.5C 1091.2,2204.58 1028.7,2350.24 977,2500.5C 950.921,2577.07 926.255,2654.07 903,2731.5C 898.822,2742.86 893.822,2753.86 888,2764.5C 883.833,2772.67 877.667,2778.83 869.5,2783C 860.403,2785.37 854.57,2782.21 852,2773.5C 851.205,2763.46 851.538,2753.46 853,2743.5C 855.879,2727.65 859.546,2711.98 864,2696.5C 885.311,2623.26 906.311,2549.92 927,2476.5C 962.811,2348.86 1007.31,2224.86 1060.5,2104.5C 899.714,2173.7 747.047,2256.54 602.5,2353C 482.071,2433.39 365.738,2519.39 253.5,2611C 245.407,2616.71 236.741,2621.38 227.5,2625C 213.552,2627.38 208.052,2621.55 211,2607.5C 214.345,2598.16 219.345,2589.83 226,2582.5C 235.53,2572.64 245.363,2563.14 255.5,2554C 323.21,2498.62 391.21,2443.62 459.5,2389C 657.201,2231.06 873.867,2103.06 1109.5,2005C 1220.89,1795.65 1356.39,1603.48 1516,1428.5C 1549.83,1392 1585,1356.83 1621.5,1323C 1665.92,1282.13 1713.92,1246.13 1765.5,1215C 1803.63,1193.24 1844.29,1179.4 1887.5,1173.5 Z"/></g>
<g><path style="opacity:0.98" fill="#fefffe" d="M 1577.5,2472.5 C 1601.01,2471.5 1624.34,2473 1647.5,2477C 1655.02,2478.55 1662.35,2480.71 1669.5,2483.5C 1670.67,2504.83 1670.83,2526.16 1670,2547.5C 1640.26,2528.46 1608.1,2522.63 1573.5,2530C 1564.26,2532.36 1557.09,2537.53 1552,2545.5C 1548.72,2552.81 1548.72,2560.14 1552,2567.5C 1557.97,2575.81 1565.47,2582.31 1574.5,2587C 1596.54,2596.57 1618.21,2606.9 1639.5,2618C 1676.07,2640 1690.24,2672.16 1682,2714.5C 1674.67,2744.16 1656.51,2764 1627.5,2774C 1582.76,2786.78 1538.09,2786.44 1493.5,2773C 1488.57,2771.02 1483.73,2768.86 1479,2766.5C 1478.33,2743.83 1478.33,2721.17 1479,2698.5C 1512.56,2726.01 1550.39,2734.51 1592.5,2724C 1609.58,2717.02 1615.08,2704.85 1609,2687.5C 1602.59,2678.37 1594.42,2671.2 1584.5,2666C 1565.58,2657.14 1546.58,2648.47 1527.5,2640C 1484.92,2616.97 1469.42,2581.8 1481,2534.5C 1489.65,2510.51 1505.82,2493.68 1529.5,2484C 1545.12,2478.05 1561.12,2474.21 1577.5,2472.5 Z"/></g>
<g><path style="opacity:0.98" fill="#fefffe" d="M 1796.5,2472.5 C 1820.01,2471.5 1843.34,2473 1866.5,2477C 1874.02,2478.55 1881.35,2480.71 1888.5,2483.5C 1889.67,2504.83 1889.83,2526.16 1889,2547.5C 1859.26,2528.46 1827.1,2522.63 1792.5,2530C 1783.26,2532.36 1776.09,2537.53 1771,2545.5C 1767.72,2552.81 1767.72,2560.14 1771,2567.5C 1776.97,2575.81 1784.47,2582.31 1793.5,2587C 1815.54,2596.57 1837.21,2606.9 1858.5,2618C 1895.07,2640 1909.24,2672.16 1901,2714.5C 1893.67,2744.16 1875.51,2764 1846.5,2774C 1801.76,2786.78 1757.09,2786.44 1712.5,2773C 1707.57,2771.02 1702.73,2768.86 1698,2766.5C 1697.33,2743.83 1697.33,2721.17 1698,2698.5C 1731.56,2726.01 1769.39,2734.51 1811.5,2724C 1828.58,2717.02 1834.08,2704.85 1828,2687.5C 1821.59,2678.37 1813.42,2671.2 1803.5,2666C 1784.58,2657.14 1765.58,2648.47 1746.5,2640C 1703.92,2616.97 1688.42,2581.8 1700,2534.5C 1708.65,2510.51 1724.82,2493.68 1748.5,2484C 1764.12,2478.05 1780.12,2474.21 1796.5,2472.5 Z"/></g>
<g><path style="opacity:0.982" fill="#fefffe" d="M 2158.5,2472.5 C 2206.78,2467.31 2247.94,2481.64 2282,2515.5C 2308.4,2547.2 2321.24,2583.86 2320.5,2625.5C 2321.51,2671.33 2306.51,2710.83 2275.5,2744C 2246.23,2770.82 2211.56,2783.99 2171.5,2783.5C 2117.09,2783.39 2075.26,2760.72 2046,2715.5C 2029.34,2684.22 2022.68,2650.88 2026,2615.5C 2028.25,2573.18 2044.42,2537.34 2074.5,2508C 2098.76,2487.3 2126.76,2475.47 2158.5,2472.5 Z M 2164.5,2531.5 C 2204.04,2529.22 2229.88,2546.89 2242,2584.5C 2250.62,2615.67 2249.95,2646.67 2240,2677.5C 2222.29,2715.6 2192.79,2730.1 2151.5,2721C 2123.88,2710.03 2107.04,2689.86 2101,2660.5C 2093.54,2627.32 2097.54,2595.65 2113,2565.5C 2125.01,2546.31 2142.18,2534.98 2164.5,2531.5 Z"/></g>
<g><path style="opacity:0.986" fill="#fefffe" d="M 1176.5,2477.5 C 1234.5,2477.5 1292.5,2477.5 1350.5,2477.5C 1350.5,2496.17 1350.5,2514.83 1350.5,2533.5C 1315.17,2533.5 1279.83,2533.5 1244.5,2533.5C 1244.5,2557.5 1244.5,2581.5 1244.5,2605.5C 1276.83,2605.5 1309.17,2605.5 1341.5,2605.5C 1341.5,2624.17 1341.5,2642.83 1341.5,2661.5C 1309.17,2661.5 1276.83,2661.5 1244.5,2661.5C 1244.5,2700.5 1244.5,2739.5 1244.5,2778.5C 1221.83,2778.5 1199.17,2778.5 1176.5,2778.5C 1176.5,2678.17 1176.5,2577.83 1176.5,2477.5 Z"/></g>
<g><path style="opacity:0.99" fill="#fefffe" d="M 1378.5,2477.5 C 1401.17,2477.5 1423.83,2477.5 1446.5,2477.5C 1446.5,2577.83 1446.5,2678.17 1446.5,2778.5C 1423.83,2778.5 1401.17,2778.5 1378.5,2778.5C 1378.5,2678.17 1378.5,2577.83 1378.5,2477.5 Z"/></g>
<g><path style="opacity:0.99" fill="#fefffe" d="M 1929.5,2477.5 C 1952.17,2477.5 1974.83,2477.5 1997.5,2477.5C 1997.5,2577.83 1997.5,2678.17 1997.5,2778.5C 1974.83,2778.5 1952.17,2778.5 1929.5,2778.5C 1929.5,2678.17 1929.5,2577.83 1929.5,2477.5 Z"/></g>
<g><path style="opacity:0.985" fill="#fefffe" d="M 2347.5,2477.5 C 2372.17,2477.33 2396.84,2477.5 2421.5,2478C 2465.79,2546.08 2509.96,2614.25 2554,2682.5C 2553.52,2614.2 2553.35,2545.87 2553.5,2477.5C 2574.83,2477.5 2596.17,2477.5 2617.5,2477.5C 2617.5,2577.83 2617.5,2678.17 2617.5,2778.5C 2594.49,2778.83 2571.49,2778.5 2548.5,2777.5C 2502.17,2707.51 2456.34,2637.17 2411,2566.5C 2412.33,2637.13 2412.83,2707.79 2412.5,2778.5C 2390.83,2778.5 2369.17,2778.5 2347.5,2778.5C 2347.5,2678.17 2347.5,2577.83 2347.5,2477.5 Z"/></g>
<g><path style="opacity:0.98" fill="#fefffe" d="M 2837.5,2477.5 C 2864.84,2477.17 2892.17,2477.5 2919.5,2478.5C 2955.44,2578.33 2990.77,2678.33 3025.5,2778.5C 3000.83,2778.67 2976.16,2778.5 2951.5,2778C 2944.2,2755.93 2937.2,2733.77 2930.5,2711.5C 2895.17,2711.33 2859.83,2711.5 2824.5,2712C 2816.96,2733.99 2809.96,2756.16 2803.5,2778.5C 2778.83,2778.5 2754.17,2778.5 2729.5,2778.5C 2765.21,2678.07 2801.21,2577.74 2837.5,2477.5 Z M 2876.5,2531.5 C 2878.12,2541.49 2880.28,2551.49 2883,2561.5C 2893.64,2593.72 2903.8,2626.05 2913.5,2658.5C 2888.83,2658.5 2864.17,2658.5 2839.5,2658.5C 2849.53,2625.38 2860.03,2592.38 2871,2559.5C 2873.93,2550.37 2875.76,2541.04 2876.5,2531.5 Z"/></g>
<g><path style="opacity:0.991" fill="#fefffe" d="M 3041.5,2477.5 C 3064.17,2477.5 3086.83,2477.5 3109.5,2477.5C 3109.5,2577.5 3109.5,2677.5 3109.5,2777.5C 3086.83,2777.69 3064.16,2778.03 3041.5,2778.5C 3041.5,2678.17 3041.5,2577.83 3041.5,2477.5 Z"/></g>
<g><path style="opacity:0.987" fill="#fefffe" d="M 3252.5,2477.5 C 3275.17,2477.5 3297.83,2477.5 3320.5,2477.5C 3320.5,2559.17 3320.5,2640.83 3320.5,2722.5C 3357.5,2722.5 3394.5,2722.5 3431.5,2722.5C 3431.33,2727.84 3431.5,2733.18 3432,2738.5C 3463.81,2651.58 3495.31,2564.58 3526.5,2477.5C 3553.84,2477.17 3581.17,2477.5 3608.5,2478.5C 3644.24,2578.05 3679.57,2677.72 3714.5,2777.5C 3689.5,2777.5 3664.5,2777.5 3639.5,2777.5C 3633.04,2755.44 3626.37,2733.44 3619.5,2711.5C 3584.17,2711.33 3548.83,2711.5 3513.5,2712C 3506.27,2733.41 3499.27,2754.91 3492.5,2776.5C 3412.5,2777.5 3332.5,2777.83 3252.5,2777.5C 3252.5,2677.5 3252.5,2577.5 3252.5,2477.5 Z M 3565.5,2531.5 C 3567.12,2541.49 3569.28,2551.49 3572,2561.5C 3582.64,2593.72 3592.8,2626.05 3602.5,2658.5C 3577.83,2658.5 3553.17,2658.5 3528.5,2658.5C 3538.53,2625.38 3549.03,2592.38 3560,2559.5C 3562.93,2550.37 3564.76,2541.04 3565.5,2531.5 Z"/></g>
<g><path style="opacity:0.987" fill="#fefffe" d="M 3729.5,2477.5 C 3775.52,2477.05 3821.52,2477.55 3867.5,2479C 3887.87,2480.9 3906.2,2487.9 3922.5,2500C 3941.53,2518.45 3947.7,2540.61 3941,2566.5C 3934.55,2583.94 3923.39,2597.44 3907.5,2607C 3900.56,2610.98 3893.22,2613.98 3885.5,2616C 3916.18,2619.39 3938.02,2634.89 3951,2662.5C 3963.36,2720.8 3940.86,2757.97 3883.5,2774C 3877.54,2775.22 3871.54,2776.22 3865.5,2777C 3820.17,2777.5 3774.83,2777.67 3729.5,2777.5C 3729.5,2677.5 3729.5,2577.5 3729.5,2477.5 Z M 3797.5,2528.5 C 3810.84,2528.33 3824.17,2528.5 3837.5,2529C 3863.55,2531.7 3874.39,2545.87 3870,2571.5C 3865.03,2586.13 3854.86,2594.63 3839.5,2597C 3825.53,2598.29 3811.53,2598.79 3797.5,2598.5C 3797.5,2575.17 3797.5,2551.83 3797.5,2528.5 Z M 3797.5,2649.5 C 3813.5,2649.33 3829.5,2649.5 3845.5,2650C 3879.08,2656.32 3889.91,2675.49 3878,2707.5C 3868.83,2720.17 3856.33,2726.67 3840.5,2727C 3826.17,2727.5 3811.84,2727.67 3797.5,2727.5C 3797.5,2701.5 3797.5,2675.5 3797.5,2649.5 Z"/></g>
<g><path style="opacity:0.961" fill="#fefffe" d="M 792.5,2903.5 C 801.9,2903.11 811.234,2903.61 820.5,2905C 792.497,2912.14 778.164,2929.98 777.5,2958.5C 783.636,2956.05 789.969,2954.38 796.5,2953.5C 798.952,2935.22 809.452,2925.22 828,2923.5C 852.567,2927.06 862.901,2941.06 859,2965.5C 857.971,2968.39 856.805,2971.22 855.5,2974C 859.296,2979.1 862.963,2984.27 866.5,2989.5C 883.447,2967.71 883.781,2945.55 867.5,2923C 868.908,2922.68 870.241,2923.02 871.5,2924C 904.768,2948.37 921.102,2981.2 920.5,3022.5C 909.435,3000.64 891.768,2990.8 867.5,2993C 870.482,2998.45 872.149,3004.28 872.5,3010.5C 895.036,3013.2 905.87,3025.87 905,3048.5C 898.998,3069.59 885.165,3078.09 863.5,3074C 860.716,3073.11 858.05,3071.94 855.5,3070.5C 851.212,3075.29 846.212,3079.12 840.5,3082C 851.68,3091.71 864.68,3095.71 879.5,3094C 886.05,3092.7 892.383,3091.03 898.5,3089C 875.016,3120.07 843.682,3135.73 804.5,3136C 823.789,3125.28 833.789,3108.78 834.5,3086.5C 827.918,3088.48 821.251,3090.15 814.5,3091.5C 812.016,3109.82 801.516,3119.82 783,3121.5C 762.828,3119.99 751.995,3109.16 750.5,3089C 750.618,3082.86 752.284,3077.19 755.5,3072C 750.926,3067.26 746.926,3062.1 743.5,3056.5C 729.55,3074.74 727.884,3094.07 738.5,3114.5C 738.333,3114.83 738.167,3115.17 738,3115.5C 704.963,3091.76 688.629,3059.43 689,3018.5C 699.55,3039.86 716.716,3050.02 740.5,3049C 737.978,3043.08 736.311,3036.91 735.5,3030.5C 715.738,3028.98 705.404,3018.31 704.5,2998.5C 704.105,2988.79 707.439,2980.63 714.5,2974C 727.84,2964.61 741.507,2964.11 755.5,2972.5C 760.657,2968.42 765.99,2964.59 771.5,2961C 758.542,2949.79 743.542,2945.46 726.5,2948C 720.242,2949.64 714.242,2951.64 708.5,2954C 729.238,2925.13 757.238,2908.3 792.5,2903.5 Z M 802.5,2973.5 C 832.926,2975.93 849.926,2992.26 853.5,3022.5C 851.801,3045.07 840.468,3060.57 819.5,3069C 791.377,3075.35 771.21,3065.52 759,3039.5C 751.539,3011.93 760.372,2991.43 785.5,2978C 791.111,2975.73 796.778,2974.23 802.5,2973.5 Z"/></g>
<g><path style="opacity:0.969" fill="#fefffe" d="M 796.5,2992.5 C 821.477,2990.32 834.31,3001.65 835,3026.5C 831.583,3043.08 821.416,3052.08 804.5,3053.5C 781.628,3050.44 771.794,3037.44 775,3014.5C 778.35,3003.32 785.517,2995.98 796.5,2992.5 Z"/></g>
</svg>
