<?xml version="1.0" standalone="no"?>
<!DOCTYPE svg PUBLIC "-//W3C//DTD SVG 20010904//EN"
 "http://www.w3.org/TR/2001/REC-SVG-20010904/DTD/svg10.dtd">
<svg version="1.0" xmlns="http://www.w3.org/2000/svg"
 width="1024.000000pt" height="1024.000000pt" viewBox="0 0 1024.000000 1024.000000"
 preserveAspectRatio="xMidYMid meet">

<g transform="translate(0.000000,1024.000000) scale(0.100000,-0.100000)"
fill="#000000" stroke="none">
<path d="M0 5120 l0 -5120 5120 0 5120 0 0 5120 0 5120 -5120 0 -5120 0 0
-5120z m6070 3863 c0 -38 -31 -146 -59 -207 -27 -61 -106 -186 -117 -186 -3 0
9 20 26 45 53 77 72 131 77 219 7 138 10 146 43 146 22 0 30 -5 30 -17z m-431
-763 c-2 -95 -5 -117 -19 -127 -35 -25 -214 -98 -505 -208 -322 -122 -457
-176 -569 -231 -39 -19 -64 -29 -55 -22 12 10 15 38 16 136 1 115 2 123 25
142 43 36 193 97 673 275 104 39 328 136 380 166 48 27 56 7 54 -131z m-682
-530 c-3 -12 -1 -18 5 -14 5 3 8 -2 7 -12 -2 -11 0 -24 4 -31 4 -6 3 -14 -2
-18 -6 -3 -8 -12 -4 -20 3 -9 0 -22 -7 -30 -7 -8 -9 -15 -5 -15 4 0 13 7 20
16 10 15 12 15 12 1 0 -11 -32 -28 -101 -53 -262 -97 -598 -258 -663 -316 -12
-11 -26 -17 -32 -13 -17 10 -51 81 -51 106 0 78 301 246 655 365 88 29 162 54
164 54 2 0 1 -9 -2 -20z m279 -247 c-7 -16 -22 -55 -32 -88 -10 -33 -21 -64
-24 -68 -4 -4 -74 -25 -156 -47 -176 -46 -459 -137 -596 -191 -54 -21 -103
-36 -110 -33 -24 10 -101 115 -92 124 19 18 294 129 419 169 112 36 414 117
555 149 25 5 46 10 48 11 1 0 -4 -11 -12 -26z m-107 -519 c-6 -8 -20 -14 -30
-14 -49 0 -490 -93 -521 -110 -13 -7 -25 -2 -50 23 -18 18 -55 51 -81 74 l-48
41 53 16 c84 24 226 55 463 100 l220 42 3 -79 c2 -49 -1 -84 -9 -93z m634 104
c41 -48 7 -118 -58 -118 -59 0 -93 58 -64 111 22 42 89 46 122 7z m-1106 -290
l72 -45 198 23 c109 13 206 25 216 28 12 3 17 -2 17 -18 0 -12 9 -53 19 -91
11 -38 19 -71 18 -72 -1 -1 -49 -7 -107 -13 -58 -6 -106 -12 -107 -13 -1 -1
71 -42 160 -92 269 -148 557 -325 557 -342 0 -2 -5 -1 -12 3 -7 5 -8 3 -2 -7
4 -8 10 -22 11 -31 2 -10 4 -21 5 -25 1 -4 -2 -28 -5 -53 -7 -44 -11 -122 -8
-148 0 -7 35 -48 77 -92 43 -44 75 -82 73 -84 -2 -2 -56 -11 -119 -20 -63 -8
-223 -31 -355 -50 -132 -19 -263 -37 -292 -41 l-51 -7 -7 59 c-3 32 -8 70 -11
84 -5 26 -4 27 78 38 118 17 527 81 567 90 l35 7 -65 45 c-35 25 -71 48 -80
51 -15 6 -184 -1 -476 -18 -98 -6 -123 -4 -123 6 0 7 -18 44 -39 81 l-40 69
27 1 c51 1 361 35 366 40 3 3 -50 34 -117 70 l-122 66 -140 -10 -139 -9 -26
30 c-14 16 -46 48 -72 70 l-47 40 85 12 85 12 -93 58 c-83 51 -99 57 -148 57
-78 1 -89 4 -85 24 2 9 -12 36 -32 58 -19 23 -30 41 -24 41 6 0 11 -5 11 -12
0 -6 3 -9 6 -5 3 3 25 -6 48 -20 22 -15 46 -26 53 -26 7 0 10 -3 8 -7 -2 -3
10 -14 27 -24 29 -18 30 -18 20 1 -6 11 -9 54 -6 104 3 46 5 97 4 113 0 27 16
50 30 41 3 -2 37 -23 77 -47z m1476 -105 c28 -31 30 -66 7 -96 -28 -35 -80
-37 -110 -5 -26 28 -26 58 1 92 24 31 77 36 102 9z m-2393 -53 c0 -5 -5 -10
-11 -10 -5 0 -7 5 -4 10 3 6 8 10 11 10 2 0 4 -4 4 -10z m686 -47 c-7 -7 -21
-4 -21 5 0 4 -4 14 -9 22 -6 9 -1 7 12 -4 12 -11 20 -21 18 -23z m-498 -273
c43 -41 17 -130 -39 -130 -23 0 -60 18 -71 34 -18 26 -8 75 18 95 34 27 64 27
92 1z m2501 -6 c27 -34 27 -62 -1 -91 -30 -33 -80 -31 -107 3 -12 15 -21 34
-21 44 0 34 39 70 75 70 24 0 39 -7 54 -26z m-2217 -361 c27 -24 24 -87 -4
-107 -69 -49 -151 33 -102 102 19 27 78 30 106 5z m1741 -349 c17 -25 40 -58
49 -73 l18 -28 -163 -53 c-227 -74 -425 -121 -868 -206 l-26 -5 19 88 c11 48
22 91 26 94 4 3 63 16 132 29 155 28 556 128 670 168 47 16 91 30 98 31 7 0
27 -20 45 -45z m102 -194 c6 -35 2 -47 -25 -89 -81 -128 -194 -186 -565 -291
-183 -51 -246 -66 -230 -53 6 4 11 28 12 53 1 25 2 53 2 63 1 10 5 16 9 13 5
-3 8 4 8 15 -1 18 28 30 229 98 267 89 408 147 485 200 30 21 58 36 62 34 3
-2 9 -21 13 -43z m-387 -529 l0 -129 -57 -25 c-77 -35 -141 -60 -484 -187
-164 -61 -350 -135 -413 -165 -64 -30 -121 -52 -127 -48 -5 3 -7 2 -4 -4 3 -5
-8 -17 -26 -27 -26 -14 -28 -14 -10 -1 17 13 20 21 13 40 -5 13 -9 63 -10 112
0 108 1 124 12 117 4 -3 8 -1 8 4 0 22 256 129 610 256 102 36 248 92 325 125
77 33 145 60 151 60 9 1 12 -37 12 -128z m-1314 -743 c-109 -118 -144 -195
-151 -332 -5 -91 -8 -102 -25 -103 -10 -1 -16 2 -13 6 2 5 -3 8 -12 7 -10 0
-19 7 -21 17 -8 37 47 184 98 261 46 71 135 176 148 176 3 0 -8 -15 -24 -32z
m-1908 -1280 c36 -12 68 -27 71 -34 4 -12 -32 -110 -48 -128 -4 -4 -36 1 -70
13 -88 30 -163 28 -194 -4 -52 -51 -24 -92 110 -160 152 -78 196 -123 210
-218 l7 -47 -90 0 c-86 0 -90 1 -96 24 -7 27 -51 58 -163 115 -91 45 -159 112
-169 167 -3 19 -4 63 -2 99 5 80 38 127 118 168 48 24 64 27 152 27 73 0 114
-5 164 -22z m2874 -63 l0 -75 -110 0 -110 0 0 -220 0 -220 -90 0 -90 0 0 220
0 220 -105 0 -105 0 0 75 0 75 305 0 305 0 0 -75z m-2272 19 c34 -23 31 -95
-4 -123 -38 -30 -98 -28 -129 4 -32 31 -34 86 -5 115 25 25 105 27 138 4z
m3950 0 c34 -23 31 -95 -4 -123 -38 -30 -98 -28 -129 4 -32 31 -34 86 -5 115
25 25 105 27 138 4z m-3111 -145 c15 -5 43 -24 61 -42 l32 -31 16 23 c27 38
90 61 172 61 82 0 127 -15 165 -55 35 -39 47 -95 47 -229 l0 -116 -90 0 -90 0
0 95 c0 129 -19 165 -85 165 -75 0 -107 -49 -113 -172 l-4 -88 -89 0 -89 0 0
95 c0 129 -19 165 -85 165 -74 0 -106 -49 -113 -171 l-5 -89 -88 0 -89 0 0
195 0 196 72 -3 72 -3 8 -33 9 -34 24 27 c14 14 40 32 57 40 39 17 165 19 205
4z m4006 -19 c62 -42 81 -94 85 -242 l4 -128 -91 0 -91 0 0 85 c0 131 -26 175
-104 175 -75 0 -116 -71 -116 -199 l0 -61 -90 0 -90 0 0 195 0 196 72 -3 72
-3 8 -33 9 -34 27 28 c45 45 78 54 178 52 78 -3 96 -7 127 -28z m-2106 -105
c18 -66 39 -153 47 -193 l14 -73 -81 3 -81 3 -53 180 c-29 99 -53 186 -53 193
0 10 21 12 87 10 l88 -3 32 -120z m372 88 c10 -40 69 -291 77 -331 4 -22 3
-23 -63 -20 l-68 3 -25 107 c-14 59 -28 109 -31 112 -3 3 -13 -29 -23 -72 -10
-42 -22 -94 -27 -114 l-10 -38 -65 0 -66 0 6 38 c4 20 26 108 48 195 l41 157
98 0 98 0 10 -37z m361 29 c0 -7 -30 -111 -89 -309 l-22 -73 -79 0 c-44 0 -80
2 -80 5 0 21 73 309 95 373 5 13 175 18 175 4z m-3522 -86 l62 1 0 -148 0
-149 -90 0 -90 0 0 155 0 155 28 -7 c15 -5 55 -7 90 -7z m4022 -148 l0 -148
-90 0 -90 0 0 148 0 148 90 0 90 0 0 -148z"/>
</g>
</svg>
